# xmcd CD database file
#
# Track frame offsets:
#	150
#	13847
#	27340
#	40285
#	51590
#	63610
#	77480
#	91380
#	102240
#	113000
#	124852
#	138415
#	151790
#
# Disc length: 2182 seconds
#
# Revision: 2
# Processed by: cddbd v1.5.2PL0 Copyright (c) Steve Scherf et al.
# Submitted via: CDex 1.51
#
DISCID=aa08840d
DTITLE=Various Artist - Living The Blues - Collection [CD2]
DYEAR=1999
DGENRE=Blues
TTITLE0=Koko Taylor - Wang Dang Doodle
TTITLE1=Little Junior's Blue Flames - Feelin' Good
TTITLE2=Muddy Waters - Got My Mojo Working
TTITLE3=Bo Diddley - Who Do You Love
TTITLE4=Little Walter - My Babe
TTITLE5=Slim Harpo - I'm A King Bee
TTITLE6=Albert Collins - Frosty
TTITLE7=Earl King - Those Lonely Lonely Nights
TTITLE8=Charles Brown Trio - Trouble Blues
TTITLE9=Sonny Boy Williamson - Bring It On Home
TTITLE10=Buddy Guy - Stone Crazy
TTITLE11=Otis Rush - I Can't Quit You Baby
TTITLE12=Little Milton - Grits Ain't Groceries
EXTD=YEAR: 1999
EXTT0=
EXTT1=
EXTT2=
EXTT3=
EXTT4=
EXTT5=
EXTT6=
EXTT7=
EXTT8=
EXTT9=
EXTT10=
EXTT11=
EXTT12=
PLAYORDER=
